<?xml version="1.0" encoding="UTF-8"?>
<svg version="1.1" viewBox="0 0 1600 1600" width="1280" height="1280" xmlns="http://www.w3.org/2000/svg">
<path transform="translate(807,167)" d="m0 0c4.36 0.503 6.31 1.81 9.39 4.89 1.28 1.27 1.28 1.27 2.59 2.56 0.94 0.949 1.88 1.9 2.82 2.85 1.01 1 2.02 2.01 3.03 3.01 2.79 2.77 5.56 5.56 8.33 8.34 3.01 3.02 6.04 6.04 9.06 9.05 5.3 5.29 10.6 10.6 15.9 15.9 7.86 7.88 15.7 15.8 23.6 23.6 13.2 13.2 26.5 26.5 39.7 39.7 13.1 13.1 26.2 26.2 39.3 39.4 0.815 0.815 1.63 1.63 2.47 2.47 3.31 3.31 6.61 6.61 9.92 9.92 31 31 62.1 62.1 93.1 93.2 27.6 27.6 55.2 55.2 82.8 82.8 1.77 1.77 3.55 3.55 5.32 5.32 0.876 0.876 1.75 1.75 2.66 2.66 4.41 4.41 8.82 8.82 13.2 13.2 0.87 0.87 1.74 1.74 2.64 2.64 23 23 46.1 46.1 69.1 69.1 1.23 1.23 1.23 1.23 2.48 2.48 3.29 3.3 6.59 6.59 9.88 9.89 11.5 11.5 23 23 34.4 34.4 14.8 14.8 29.6 29.6 44.4 44.4 7.82 7.83 15.7 15.7 23.5 23.5 5.22 5.22 10.4 10.4 15.7 15.7 2.98 2.98 5.96 5.97 8.94 8.94 2.71 2.7 5.41 5.41 8.11 8.12 0.977 0.98 1.96 1.96 2.94 2.93 1.32 1.32 2.64 2.64 3.95 3.96 0.733 0.733 1.47 1.47 2.22 2.22 1.54 1.8 1.54 1.8 1.54 3.8-1.47 1.45-1.47 1.45-3.5 3.12-6.42 5.47-12.2 11.3-17.5 17.9-1.69 1.87-1.69 1.87-3 3h-2v2c-1.67 1.33-3.33 2.67-5 4-0.918 1.06-1.81 2.15-2.69 3.25-0.763 0.908-1.53 1.82-2.31 2.75h-2c-0.33 0.99-0.66 1.98-1 3-1.94 2.19-1.94 2.19-4 4h-2c-0.33 0.99-0.66 1.98-1 3h-2c-0.402 0.959-0.402 0.959-0.812 1.94-1.19 2.06-1.19 2.06-4.19 3.06-0.33 0.99-0.66 1.98-1 3h-2c-0.33 0.99-0.66 1.98-1 3-1.94 2.19-1.94 2.19-4 4h-2c-0.402 0.897-0.402 0.897-0.812 1.81-1.19 2.19-2.28 3.6-4.19 5.19h-2c-0.33 0.99-0.66 1.98-1 3h-2c-0.248 0.578-0.495 1.16-0.75 1.75-1.43 2.58-3.03 4.31-5.25 6.25h-2c-0.66 1.32-1.32 2.64-2 4h-2c-0.33 0.99-0.66 1.98-1 3h-2c-0.402 0.897-0.402 0.897-0.812 1.81-1.19 2.19-2.28 3.6-4.19 5.19h-2l-0.656 1.64c-1.81 3.18-4.26 5.57-6.84 8.11-0.499 0.507-0.998 1.01-1.51 1.54-3.73 3.71-3.73 3.71-5.99 3.71-0.33 0.99-0.66 1.98-1 3h-2c-0.66 1.32-1.32 2.64-2 4h-2c-0.33 0.99-0.66 1.98-1 3h-2v2c-1.64 1.62-1.64 1.62-3.81 3.44-2.5 2.11-4.91 4.21-7.19 6.56-3-1.35-5.09-2.84-7.4-5.16-0.988-0.983-0.988-0.983-2-1.99-0.717-0.723-1.43-1.45-2.17-2.19-0.77-0.769-1.54-1.54-2.33-2.33-2.6-2.6-5.19-5.21-7.79-7.81-1.87-1.88-3.75-3.75-5.62-5.63-4.08-4.09-8.16-8.18-12.2-12.3-6.06-6.09-12.1-12.2-18.2-18.2-9.58-9.6-19.2-19.2-28.7-28.8-15.2-15.2-30.4-30.5-45.6-45.7-5.85-5.86-11.7-11.7-17.5-17.6-0.65-0.651-1.3-1.3-1.97-1.97-15.5-15.5-30.9-31-46.4-46.5-0.677-0.678-1.35-1.36-2.05-2.06-15.8-15.8-31.6-31.7-47.4-47.5-0.68-0.681-1.36-1.36-2.06-2.06-3.43-3.44-6.86-6.87-10.3-10.3-0.677-0.679-1.35-1.36-2.05-2.06-1.37-1.37-2.73-2.74-4.1-4.11-22.6-22.6-45.1-45.2-67.7-67.8-3.19-3.19-6.37-6.38-9.56-9.57-0.627-0.628-1.25-1.26-1.9-1.9-10.1-10.1-20.2-20.3-30.3-30.4-10.1-10.2-20.3-20.3-30.4-30.5-6.04-6.04-12.1-12.1-18.1-18.2-4.02-4.04-8.05-8.07-12.1-12.1-2.3-2.3-4.6-4.6-6.89-6.91-2.46-2.48-4.93-4.95-7.41-7.41-0.717-0.73-1.43-1.46-2.17-2.21-0.659-0.648-1.32-1.3-2-1.96-0.565-0.566-1.13-1.13-1.71-1.72-1.64-1.27-1.64-1.27-3.69-0.933-2.31 1-3.63 2.12-5.41 3.91-0.661 0.654-1.32 1.31-2 1.98-0.719 0.727-1.44 1.45-2.18 2.2-0.773 0.769-1.55 1.54-2.34 2.33-2.61 2.6-5.21 5.22-7.81 7.83-1.88 1.88-3.76 3.76-5.64 5.63-4.1 4.09-8.2 8.19-12.3 12.3-6.08 6.1-12.2 12.2-18.3 18.3-10.3 10.2-20.5 20.5-30.7 30.8-10.1 10.2-20.3 20.3-30.4 30.5-0.631 0.631-1.26 1.26-1.91 1.91-3.2 3.2-6.4 6.41-9.61 9.61-22.7 22.7-45.4 45.4-68.1 68.1-22 22.1-44.1 44.1-66.1 66.2-0.679 0.68-1.36 1.36-2.06 2.06-6.82 6.83-13.6 13.7-20.5 20.5-13.9 13.9-27.8 27.8-41.7 41.7-0.958 0.959-0.958 0.959-1.94 1.94-42.7 42.7-85.4 85.4-128 128-2.44-0.812-2.44-0.812-5-2l-1-3c-1.33-0.673-2.66-1.34-4-2-1.76-1.58-3.48-3.23-5.15-4.91-0.506-0.504-1.01-1.01-1.53-1.53-1.69-1.69-3.38-3.38-5.06-5.08-1.21-1.21-2.42-2.42-3.64-3.64-3.29-3.29-6.58-6.59-9.86-9.89-3.43-3.45-6.87-6.89-10.3-10.3-6.51-6.52-13-13-19.5-19.6-7.4-7.43-14.8-14.8-22.2-22.3-15.2-15.3-30.5-30.5-45.7-45.8 1.47-3.41 3.38-5.63 6-8.25 0.843-0.847 1.69-1.69 2.55-2.57 1.4-1.39 1.4-1.39 2.83-2.81 1-1 2-2 3-3.01 2.76-2.77 5.53-5.53 8.3-8.29 3.01-3 6.01-6 9.01-9.01 5.27-5.27 10.5-10.5 15.8-15.8 7.84-7.82 15.7-15.7 23.5-23.5 13.2-13.2 26.3-26.3 39.5-39.5 13.1-13 26.1-26.1 39.2-39.1 0.811-0.81 1.62-1.62 2.46-2.46 4.12-4.12 8.23-8.23 12.4-12.3 29.2-29.2 58.4-58.3 87.5-87.5 1.77-1.76 3.53-3.53 5.3-5.29 0.875-0.874 1.75-1.75 2.65-2.65 4.43-4.42 8.85-8.85 13.3-13.3 1.32-1.32 1.32-1.32 2.66-2.66 20.4-20.4 40.8-40.8 61.2-61.1 0.873-0.873 1.75-1.75 2.65-2.65 19.9-19.9 39.9-39.8 59.8-59.8 0.837-0.837 1.67-1.67 2.54-2.53 7.53-7.52 15.1-15 22.6-22.6 18.8-18.8 37.6-37.6 56.4-56.4 13.1-13.1 26.2-26.2 39.3-39.3 7.79-7.79 15.6-15.6 23.4-23.4 5.2-5.19 10.4-10.4 15.6-15.6 2.96-2.96 5.93-5.93 8.9-8.89 2.69-2.69 5.39-5.38 8.08-8.07 0.973-0.973 1.95-1.94 2.92-2.92 1.31-1.31 2.62-2.62 3.94-3.94 0.729-0.729 1.46-1.46 2.21-2.21 1.73-1.7 1.73-1.7 2.66-3.79z" fill="#000002"/>
<path transform="translate(810 712)" d="m0 0c2.59 1.26 4.23 2.83 6.27 4.87 0.852 0.845 1.7 1.69 2.58 2.56 0.942 0.95 1.88 1.9 2.83 2.85 1.01 1 2.01 2.01 3.02 3.01 2.79 2.78 5.56 5.56 8.34 8.35 3.01 3.02 6.04 6.04 9.06 9.06 5.3 5.29 10.6 10.6 15.9 15.9 7.87 7.88 15.7 15.8 23.6 23.6 13.2 13.2 26.5 26.5 39.7 39.8 13.1 13.1 26.2 26.3 39.3 39.4 0.815 0.815 1.63 1.63 2.47 2.47 4.14 4.14 8.28 8.28 12.4 12.4 29.3 29.3 58.7 58.7 88 88 28.5 28.5 57 57 85.5 85.5 0.878 0.878 1.76 1.76 2.66 2.66 8.82 8.82 17.6 17.6 26.5 26.5 18 18 35.9 35.9 53.9 53.9 0.826 0.826 1.65 1.65 2.5 2.5 55.2 55.2 110 110 166 166-0.943 1.11-1.89 2.22-2.83 3.32-0.526 0.617-1.05 1.23-1.59 1.87-2.24 2.57-4.63 4.98-7.04 7.39-0.516 0.516-1.03 1.03-1.56 1.56-1.71 1.71-3.42 3.41-5.13 5.12-1.23 1.23-2.47 2.46-3.7 3.7-3.33 3.33-6.66 6.66-10 9.98-3.49 3.48-6.98 6.97-10.5 10.5-6.6 6.59-13.2 13.2-19.8 19.8-7.52 7.5-15 15-22.5 22.5-15.4 15.4-30.9 30.9-46.4 46.3-3-1.35-5.09-2.84-7.4-5.16-0.988-0.983-0.988-0.983-2-1.99-0.717-0.723-1.43-1.45-2.17-2.19-0.77-0.769-1.54-1.54-2.33-2.33-2.6-2.6-5.19-5.21-7.79-7.81-1.87-1.88-3.75-3.75-5.62-5.63-4.08-4.09-8.16-8.18-12.2-12.3-6.06-6.09-12.1-12.2-18.2-18.2-9.58-9.6-19.2-19.2-28.7-28.8-15.2-15.2-30.4-30.5-45.6-45.7-5.85-5.86-11.7-11.7-17.5-17.6-0.65-0.651-1.3-1.3-1.97-1.97-15.5-15.5-30.9-31-46.4-46.5-0.677-0.678-1.35-1.36-2.05-2.06-15.8-15.8-31.6-31.7-47.4-47.5-0.68-0.681-1.36-1.36-2.06-2.06-3.43-3.44-6.86-6.87-10.3-10.3-0.677-0.679-1.35-1.36-2.05-2.06-1.37-1.37-2.73-2.74-4.1-4.11-22.6-22.6-45.1-45.2-67.7-67.8-3.19-3.19-6.37-6.38-9.56-9.57-0.627-0.628-1.25-1.26-1.9-1.9-10.1-10.1-20.2-20.3-30.3-30.4-10.1-10.2-20.3-20.3-30.4-30.5-6.04-6.04-12.1-12.1-18.1-18.2-4.02-4.04-8.05-8.07-12.1-12.1-2.3-2.3-4.6-4.6-6.89-6.91-2.46-2.48-4.93-4.95-7.41-7.41-0.717-0.73-1.43-1.46-2.17-2.21-0.659-0.648-1.32-1.3-2-1.96-0.565-0.566-1.13-1.13-1.71-1.72-1.64-1.27-1.64-1.27-3.69-0.933-2.31 1-3.63 2.12-5.41 3.91-0.66 0.655-1.32 1.31-2 1.98-0.718 0.728-1.44 1.46-2.18 2.2-0.772 0.77-1.54 1.54-2.34 2.33-2.61 2.61-5.21 5.22-7.8 7.84-1.88 1.88-3.75 3.76-5.63 5.64-4.09 4.1-8.18 8.2-12.3 12.3-6.08 6.1-12.2 12.2-18.2 18.3-10.2 10.3-20.5 20.5-30.7 30.8-14 14-27.9 28-41.9 42-6.51 6.51-13 13-19.5 19.5-0.651 0.652-1.3 1.3-1.97 1.98-15.5 15.5-31 31.1-46.5 46.6-0.678 0.68-1.36 1.36-2.06 2.06-15.8 15.9-31.7 31.7-47.5 47.6-1.38 1.38-2.75 2.76-4.13 4.14-0.681 0.682-1.36 1.36-2.06 2.07-2.75 2.75-5.49 5.51-8.24 8.26-1.37 1.37-2.74 2.75-4.11 4.12-15.5 15.5-31 31-46.4 46.5-0.65 0.651-1.3 1.3-1.97 1.97-6.49 6.5-13 13-19.5 19.5-3.19 3.2-6.39 6.39-9.58 9.59-0.628 0.629-1.26 1.26-1.9 1.91-10.1 10.1-20.3 20.3-30.4 30.5-10.2 10.2-20.3 20.4-30.5 30.6-6.05 6.06-12.1 12.1-18.1 18.2-4.03 4.05-8.06 8.09-12.1 12.1-2.31 2.3-4.61 4.61-6.9 6.93-2.47 2.49-4.94 4.96-7.43 7.43-0.718 0.732-1.44 1.46-2.18 2.22-0.99 0.975-0.99 0.975-2 1.97-0.566 0.568-1.13 1.14-1.72 1.72-1.69 1.07-1.69 1.07-3.84 0.871-2.48-1.07-2.74-2.41-3.85-4.8-0.99-0.33-1.98-0.66-3-1v-2c-0.598-0.268-1.2-0.536-1.81-0.812-2.19-1.19-3.6-2.28-5.19-4.19v-2c-0.589-0.264-1.18-0.529-1.78-0.801-2.3-1.24-3.82-2.55-5.67-4.39-0.619-0.616-1.24-1.23-1.88-1.87-0.634-0.642-1.27-1.28-1.92-1.95-0.65-0.642-1.3-1.28-1.97-1.95-0.614-0.616-1.23-1.23-1.86-1.87-0.561-0.563-1.12-1.13-1.7-1.71-1.22-1.48-1.22-1.48-1.22-3.48-0.576-0.251-1.15-0.501-1.74-0.76-2.56-1.41-4.28-3.02-6.34-5.09-1.21-1.2-1.21-1.2-2.44-2.43-0.874-0.881-1.75-1.76-2.65-2.67-0.927-0.927-1.85-1.85-2.81-2.81-2.54-2.54-5.07-5.08-7.6-7.63-2.65-2.66-5.3-5.32-7.96-7.97-5.02-5.03-10-10.1-15.1-15.1-5.71-5.73-11.4-11.5-17.1-17.2-11.8-11.8-23.5-23.6-35.3-35.4 1.48-3.41 3.39-5.64 6.01-8.26 0.845-0.851 1.69-1.7 2.56-2.58 0.945-0.941 1.89-1.88 2.83-2.82 1-1.01 2-2.01 3.01-3.02 2.77-2.78 5.54-5.55 8.32-8.32 3.01-3.01 6.02-6.03 9.03-9.04 5.28-5.29 10.6-10.6 15.8-15.9 7.86-7.86 15.7-15.7 23.6-23.6 15.7-15.7 31.3-31.3 47-47 0.812-0.812 1.62-1.62 2.46-2.46 0.813-0.813 1.63-1.63 2.46-2.46 9-9 18-18 27-27 27.2-27.2 54.3-54.4 81.5-81.5 0.869-0.87 1.74-1.74 2.63-2.63 3.52-3.52 7.05-7.05 10.6-10.6 2.65-2.65 5.3-5.3 7.96-7.96 0.876-0.876 1.75-1.75 2.66-2.66 27.6-27.6 55.1-55.1 82.6-82.7 30.9-31 61.8-61.9 92.8-92.8 3.29-3.3 6.59-6.59 9.88-9.89 0.811-0.811 1.62-1.62 2.46-2.46 13.1-13.1 26.2-26.2 39.2-39.3 13.1-13.1 26.3-26.3 39.4-39.4 7.82-7.81 15.6-15.6 23.4-23.5 5.2-5.22 10.4-10.4 15.6-15.6 2.98-2.97 5.96-5.94 8.92-8.93 2.69-2.71 5.4-5.41 8.11-8.1 0.978-0.974 1.95-1.95 2.92-2.94 1.31-1.32 2.63-2.63 3.96-3.94 1.1-1.1 1.1-1.1 2.22-2.22 2.04-1.42 2.04-1.42 4.04-1.39z" fill="#000002"/>
</svg>
