<?xml version="1.0" encoding="UTF-8"?>
<svg version="1.1" viewBox="0 0 1600 1600" width="1280" height="1280" xmlns="http://www.w3.org/2000/svg">
<path transform="translate(333,711)" d="m0 0c1.45 1.47 1.45 1.47 3.14 3.5 3.7 4.35 7.62 8.39 11.7 12.4 0.758 0.759 1.52 1.52 2.3 2.3 2.53 2.54 5.07 5.07 7.61 7.61 1.84 1.84 3.68 3.68 5.51 5.52 3.99 4 7.99 7.99 12 12 5.94 5.94 11.9 11.9 17.8 17.8 10.6 10.6 21.2 21.2 31.8 31.8 9.28 9.28 18.6 18.6 27.8 27.8 0.616 0.616 1.23 1.23 1.87 1.87 2.5 2.5 5 5 7.5 7.5 23.4 23.4 46.9 46.9 70.3 70.3 20.8 20.8 41.7 41.7 62.5 62.5 23.4 23.4 46.8 46.8 70.2 70.2 2.49 2.49 4.99 4.99 7.48 7.48 0.614 0.614 1.23 1.23 1.86 1.86 9.28 9.28 18.6 18.6 27.8 27.8 10.5 10.5 21.1 21.1 31.6 31.6 5.91 5.9 11.8 11.8 17.7 17.7 4.4 4.4 8.81 8.81 13.2 13.2 1.79 1.78 3.57 3.57 5.36 5.36 2.42 2.42 4.84 4.84 7.26 7.25 0.699 0.701 1.4 1.4 2.12 2.12 3.33 3.32 6.67 6.45 10.4 9.29 3-1.35 5.09-2.84 7.4-5.16 0.659-0.656 1.32-1.31 2-1.99 1.08-1.09 1.08-1.09 2.17-2.19 0.77-0.769 1.54-1.54 2.33-2.33 2.6-2.6 5.19-5.21 7.79-7.81 1.87-1.88 3.75-3.75 5.62-5.63 4.08-4.09 8.16-8.18 12.2-12.3 6.06-6.09 12.1-12.2 18.2-18.2 9.58-9.6 19.2-19.2 28.7-28.8 15.2-15.2 30.4-30.5 45.6-45.7 5.85-5.86 11.7-11.7 17.5-17.6 0.65-0.651 1.3-1.3 1.97-1.97 15.5-15.5 30.9-31 46.4-46.5 0.677-0.678 1.35-1.36 2.05-2.06 15.8-15.8 31.6-31.7 47.4-47.5 1.02-1.02 1.02-1.02 2.06-2.06 3.43-3.44 6.86-6.87 10.3-10.3 0.677-0.679 1.35-1.36 2.05-2.06 1.37-1.37 2.73-2.74 4.1-4.11 22.6-22.6 45.1-45.2 67.7-67.8 3.19-3.19 6.37-6.38 9.56-9.57 0.627-0.628 1.25-1.26 1.9-1.9 10.1-10.1 20.2-20.3 30.3-30.4 10.1-10.2 20.3-20.3 30.4-30.5 6.04-6.04 12.1-12.1 18.1-18.2 4.02-4.04 8.05-8.07 12.1-12.1 2.3-2.3 4.6-4.6 6.89-6.91 2.46-2.48 4.93-4.95 7.41-7.41 0.717-0.73 1.43-1.46 2.17-2.21 0.659-0.648 1.32-1.3 2-1.96 0.848-0.849 0.848-0.849 1.71-1.72 1.69-1.07 1.69-1.07 3.75-0.876 3.03 1.26 5.06 3.52 7.32 5.83 0.53 0.528 1.06 1.06 1.61 1.6 1.78 1.77 3.54 3.56 5.31 5.34 1.27 1.27 2.54 2.54 3.81 3.81 3.45 3.45 6.9 6.92 10.3 10.4 3.6 3.62 7.21 7.23 10.8 10.8 6.83 6.84 13.7 13.7 20.5 20.5 7.76 7.8 15.5 15.6 23.3 23.4 16 16 32 32.1 47.9 48.1-1.48 3.41-3.39 5.64-6.01 8.26-0.845 0.851-1.69 1.7-2.56 2.58-0.945 0.941-1.89 1.88-2.83 2.82-1 1.01-2 2.01-3.01 3.02-2.77 2.78-5.54 5.55-8.32 8.32-3.01 3.01-6.02 6.03-9.03 9.04-5.28 5.29-10.6 10.6-15.8 15.9-7.86 7.86-15.7 15.7-23.6 23.6-15.7 15.7-31.3 31.3-47 47-1.22 1.22-1.22 1.22-2.46 2.46-0.813 0.813-1.63 1.63-2.46 2.46-9 9-18 18-27 27-27.2 27.2-54.3 54.4-81.5 81.5-0.869 0.87-1.74 1.74-2.63 2.63-3.52 3.52-7.05 7.05-10.6 10.6-2.65 2.65-5.3 5.3-7.96 7.96-0.876 0.876-1.75 1.75-2.66 2.66-27.6 27.6-55.1 55.1-82.6 82.7-30.9 31-61.8 61.9-92.8 92.8-3.29 3.3-6.59 6.59-9.88 9.89-0.811 0.811-1.62 1.62-2.46 2.46-13.1 13.1-26.2 26.2-39.2 39.3-13.1 13.1-26.3 26.3-39.4 39.4-7.82 7.81-15.6 15.6-23.4 23.5-5.2 5.22-10.4 10.4-15.6 15.6-2.98 2.97-5.96 5.94-8.92 8.93-2.69 2.71-5.4 5.41-8.11 8.1-0.978 0.974-1.95 1.95-2.92 2.94-1.31 1.32-2.63 2.63-3.96 3.94-1.1 1.1-1.1 1.1-2.22 2.22-2.04 1.42-2.04 1.42-4.04 1.39-2.59-1.26-4.23-2.83-6.27-4.87-0.852-0.845-1.7-1.69-2.58-2.56-0.942-0.95-1.88-1.9-2.83-2.85-1.01-1-2.01-2.01-3.02-3.01-2.79-2.78-5.56-5.56-8.34-8.35-3.01-3.02-6.04-6.04-9.06-9.06-5.3-5.29-10.6-10.6-15.9-15.9-7.87-7.88-15.7-15.8-23.6-23.6-13.2-13.2-26.5-26.5-39.7-39.8-13.1-13.1-26.2-26.3-39.3-39.4-0.815-0.815-1.63-1.63-2.47-2.47-4.14-4.14-8.28-8.28-12.4-12.4-29.3-29.3-58.7-58.7-88-88-28.5-28.5-57-57-85.5-85.5-1.32-1.32-1.32-1.32-2.66-2.66-8.82-8.82-17.6-17.6-26.5-26.5-18-18-35.9-35.9-53.9-53.9-0.826-0.826-1.65-1.65-2.5-2.5-55.2-55.2-110-110-166-166 1.77-3.81 4.17-6.45 7.12-9.38 0.791-0.795 0.791-0.795 1.6-1.61 1.77-1.78 3.54-3.54 5.32-5.31 1.27-1.27 2.54-2.54 3.8-3.81 3.44-3.45 6.89-6.9 10.3-10.3 3.61-3.6 7.21-7.21 10.8-10.8 6.05-6.05 12.1-12.1 18.2-18.1 7.01-7 14-14 21-21 6-6.01 12-12 18-18 3.59-3.59 7.18-7.18 10.8-10.8 3.37-3.38 6.75-6.75 10.1-10.1 1.24-1.24 2.48-2.48 3.72-3.73 1.68-1.69 3.38-3.37 5.07-5.06 0.742-0.749 0.742-0.749 1.5-1.51 3.4-3.36 3.4-3.36 5.63-3.36z" fill="#000002"/>
<path transform="translate(332 167)" d="m0 0c2.37 0.926 3.61 1.98 5.4 3.78 0.646 0.64 1.29 1.28 1.96 1.94 1.05 1.07 1.05 1.07 2.13 2.15 0.755 0.752 1.51 1.5 2.29 2.28 2.55 2.55 5.09 5.1 7.64 7.66 1.84 1.84 3.67 3.67 5.51 5.51 4.01 4 8.01 8.01 12 12 5.95 5.97 11.9 11.9 17.9 17.9 10 10 20 20 30 30.1 9.92 9.94 19.8 19.9 29.8 29.8 0.617 0.617 1.23 1.23 1.87 1.87 3.13 3.13 6.27 6.27 9.4 9.4 22.2 22.2 44.4 44.4 66.6 66.7 5.38 5.39 10.8 10.8 16.1 16.2 0.667 0.668 1.33 1.34 2.02 2.03 15.5 15.5 31 31 46.5 46.5 0.995 0.996 0.995 0.996 2.01 2.01 15.2 15.2 30.3 30.3 45.5 45.5 0.637 0.637 1.27 1.27 1.93 1.93 5.73 5.73 11.5 11.5 17.2 17.2 14.9 14.9 29.8 29.8 44.7 44.8 9.35 9.36 18.7 18.7 28 28.1 5.92 5.92 11.8 11.9 17.8 17.8 4.42 4.43 8.84 8.85 13.3 13.3 1.79 1.79 3.58 3.58 5.36 5.37 2.43 2.43 4.86 4.87 7.29 7.3 0.693 0.697 1.39 1.39 2.1 2.11 8.1 8.45 8.1 8.45 17.8 14.7 0.393-0.393 0.786-0.786 1.19-1.19 62-62 124-124 452-452 0.787-0.844 0.787-0.844 1.59-1.7 1.41-1.3 1.41-1.3 3.26-1.3 3.07 1.43 5.19 3.64 7.53 6.02 0.795 0.791 0.795 0.791 1.61 1.6 1.78 1.77 3.54 3.56 5.31 5.34 1.27 1.27 2.54 2.54 3.81 3.81 3.45 3.45 6.9 6.92 10.3 10.4 3.6 3.62 7.21 7.23 10.8 10.8 6.83 6.84 13.7 13.7 20.5 20.5 7.76 7.8 15.5 15.6 23.3 23.4 16 16 32 32.1 47.9 48.1-1.48 3.42-3.39 5.64-6.01 8.26-0.846 0.85-1.69 1.7-2.56 2.58-0.946 0.941-1.89 1.88-2.84 2.82-1 1.01-2.01 2.01-3.01 3.02-2.77 2.78-5.55 5.55-8.33 8.32-3.02 3.01-6.03 6.03-9.04 9.04-5.28 5.29-10.6 10.6-15.9 15.9-7.87 7.86-15.7 15.7-23.6 23.6-13.2 13.2-26.4 26.4-39.7 39.7-13.1 13.1-26.2 26.2-39.3 39.3-0.814 0.814-1.63 1.63-2.47 2.47-4.13 4.13-8.26 8.26-12.4 12.4-29.3 29.3-58.6 58.6-87.9 87.8-28.5 28.4-56.9 56.9-85.4 85.3-0.877 0.876-1.75 1.75-2.66 2.66-8.8 8.8-17.6 17.6-26.4 26.4-17.9 17.9-35.9 35.9-53.8 53.8-0.825 0.824-1.65 1.65-2.5 2.5-55.1 55.1-110 110-165 165-4.39-1.59-6.9-3.46-10-7v-2c-1.32-0.66-2.64-1.32-4-2v-2c-0.99-0.33-1.98-0.66-3-1v-2c-1.32-0.66-2.64-1.32-4-2v-2c-0.99-0.33-1.98-0.66-3-1v-2c-1.32-0.66-2.64-1.32-4-2v-2c-1.32-0.66-2.64-1.32-4-2v-2c-0.99-0.33-1.98-0.66-3-1v-2c-1.32-0.66-2.64-1.32-4-2v-2c-0.99-0.33-1.98-0.66-3-1v-2c-1.32-0.66-2.64-1.32-4-2v-2c-0.99-0.33-1.98-0.66-3-1v-2c-1.32-0.66-2.64-1.32-4-2v-2c-1.32-0.66-2.64-1.32-4-2v-2c-0.99-0.33-1.98-0.66-3-1v-2c-1.32-0.66-2.64-1.32-4-2v-2c-0.99-0.33-1.98-0.66-3-1v-2c-1.32-0.66-2.64-1.32-4-2v-2l-1.77-0.781c-2.41-1.32-4.05-2.77-5.98-4.72-0.614-0.608-1.23-1.22-1.86-1.84-1.39-1.66-1.39-1.66-1.39-3.66-0.99-0.33-1.98-0.66-3-1v-2c-1.32-0.66-2.64-1.32-4-2v-2c-0.99-0.33-1.98-0.66-3-1v-2c-1.32-0.66-2.64-1.32-4-2v-2l-1.77-0.781c-2.41-1.32-4.05-2.77-5.98-4.72-0.614-0.608-1.23-1.22-1.86-1.84-1.39-1.66-1.39-1.66-1.39-3.66-0.99-0.33-1.98-0.66-3-1v-2c-1.32-0.66-2.64-1.32-4-2v-2c-0.99-0.33-1.98-0.66-3-1v-2c-1.32-0.66-2.64-1.32-4-2v-2l-1.77-0.781c-2.41-1.32-4.05-2.77-5.98-4.72-0.614-0.608-1.23-1.22-1.86-1.84-1.39-1.66-1.39-1.66-1.39-3.66-0.99-0.33-1.98-0.66-3-1v-2c-1.32-0.66-2.64-1.32-4-2v-2c-0.99-0.33-1.98-0.66-3-1v-2c-1.32-0.66-2.64-1.32-4-2v-2c-0.598-0.268-1.2-0.536-1.81-0.812-2.19-1.19-3.6-2.28-5.19-4.19v-2c-1.32-0.66-2.64-1.32-4-2v-2c-0.99-0.33-1.98-0.66-3-1v-2c-1.32-0.66-2.64-1.32-4-2v-2c-0.99-0.33-1.98-0.66-3-1v-2c-1.32-0.66-2.64-1.32-4-2v-2c-0.598-0.268-1.2-0.536-1.81-0.812-2.19-1.19-3.6-2.28-5.19-4.19v-2c-1.32-0.66-2.64-1.32-4-2v-2c-0.99-0.33-1.98-0.66-3-1v-2c-1.32-0.66-2.64-1.32-4-2v-2c-0.99-0.33-1.98-0.66-3-1v-2c-1.32-0.66-2.64-1.32-4-2v-2c-0.598-0.268-1.2-0.536-1.81-0.812-2.19-1.19-3.6-2.28-5.19-4.19v-2c-1.32-0.66-2.64-1.32-4-2v-2c-0.99-0.33-1.98-0.66-3-1v-2c-1.32-0.66-2.64-1.32-4-2v-2c-0.99-0.33-1.98-0.66-3-1v-2c-1.32-0.66-2.64-1.32-4-2v-2c-0.598-0.268-1.2-0.536-1.81-0.812-2.19-1.19-3.6-2.28-5.19-4.19v-2c-1.32-0.66-2.64-1.32-4-2v-2c-0.99-0.33-1.98-0.66-3-1v-2c-1.32-0.66-2.64-1.32-4-2v-2c-0.99-0.33-1.98-0.66-3-1v-2c-1.32-0.66-2.64-1.32-4-2v-2c-0.598-0.268-1.2-0.536-1.81-0.812-2.19-1.19-3.6-2.28-5.19-4.19v-2c-1.32-0.66-2.64-1.32-4-2v-2c-0.99-0.33-1.98-0.66-3-1v-2c-1.32-0.66-2.64-1.32-4-2v-2c-0.99-0.33-1.98-0.66-3-1v-2c-1.32-0.66-2.64-1.32-4-2v-2c-0.598-0.268-1.2-0.536-1.81-0.812-2.19-1.19-3.6-2.28-5.19-4.19v-2c-1.32-0.66-2.64-1.32-4-2v-2c-0.99-0.33-1.98-0.66-3-1v-2c-1.32-0.66-2.64-1.32-4-2v-2c-0.99-0.33-1.98-0.66-3-1v-2c-1.32-0.66-2.64-1.32-4-2v-2c-0.583-0.258-1.17-0.516-1.77-0.781-2.41-1.32-4.05-2.77-5.98-4.72-0.614-0.608-1.23-1.22-1.86-1.84-1.39-1.66-1.39-1.66-1.39-3.66-0.99-0.33-1.98-0.66-3-1v-2c-1.32-0.66-2.64-1.32-4-2v-2c-0.99-0.33-1.98-0.66-3-1v-2c-1.32-0.66-2.64-1.32-4-2v-2c-0.583-0.258-1.17-0.516-1.77-0.781-2.41-1.32-4.05-2.77-5.98-4.72-0.614-0.608-1.23-1.22-1.86-1.84-1.39-1.66-1.39-1.66-1.39-3.66-0.99-0.33-1.98-0.66-3-1v-2c-1.32-0.66-2.64-1.32-4-2v-2c-0.99-0.33-1.98-0.66-3-1v-2c-1.32-0.66-2.64-1.32-4-2v-2c-0.583-0.258-1.17-0.516-1.77-0.781-2.41-1.32-4.05-2.77-5.98-4.72-0.614-0.608-1.23-1.22-1.86-1.84-1.39-1.66-1.39-1.66-1.39-3.66-0.99-0.33-1.98-0.66-3-1v-2c-1.32-0.66-2.64-1.32-4-2v-2c-0.99-0.33-1.98-0.66-3-1v-2c-1.32-0.66-2.64-1.32-4-2v-2c-0.583-0.258-1.17-0.516-1.77-0.781-2.41-1.32-4.05-2.77-5.98-4.72-0.614-0.608-1.23-1.22-1.86-1.84-1.39-1.66-1.39-1.66-1.39-3.66-0.99-0.33-1.98-0.66-3-1v-2c-1.32-0.66-2.64-1.32-4-2v-2c-0.99-0.33-1.98-0.66-3-1v-2c-1.32-0.66-2.64-1.32-4-2v-2c-0.583-0.258-1.17-0.516-1.77-0.781-2.41-1.32-4.05-2.77-5.98-4.72-0.614-0.608-1.23-1.22-1.86-1.84-1.39-1.66-1.39-1.66-1.39-3.66-0.99-0.33-1.98-0.66-3-1v-2c-1.32-0.66-2.64-1.32-4-2v-2c-0.99-0.33-1.98-0.66-3-1v-2c-1.32-0.66-2.64-1.32-4-2v-2c-0.583-0.258-1.17-0.516-1.77-0.781-2.41-1.32-4.05-2.77-5.98-4.72-0.614-0.608-1.23-1.22-1.86-1.84-1.39-1.66-1.39-1.66-1.39-3.66-0.99-0.33-1.98-0.66-3-1v-2c-1.32-0.66-2.64-1.32-4-2v-2c-0.99-0.33-1.98-0.66-3-1v-2c-1.32-0.66-2.64-1.32-4-2v-2c-0.583-0.258-1.17-0.516-1.77-0.781-2.41-1.32-4.05-2.77-5.98-4.72-0.614-0.608-1.23-1.22-1.86-1.84-1.39-1.66-1.39-1.66-1.39-3.66-0.99-0.33-1.98-0.66-3-1v-2c-1.32-0.66-2.64-1.32-4-2v-2c-0.99-0.33-1.98-0.66-3-1v-2c-1.98-0.99-1.98-0.99-4-2v-2c-0.583-0.258-1.17-0.516-1.77-0.781-2.41-1.32-4.05-2.77-5.98-4.72-0.614-0.608-1.23-1.22-1.86-1.84-1.39-1.66-1.39-1.66-1.39-3.66-0.99-0.33-1.98-0.66-3-1v-2c-1.98-0.99-1.98-0.99-4-2v-2c-0.99-0.33-1.98-0.66-3-1v-2c-1.98-0.99-1.98-0.99-4-2v-2c-0.583-0.258-1.17-0.516-1.77-0.781-2.41-1.32-4.05-2.77-5.98-4.72-0.614-0.608-1.23-1.22-1.86-1.84-1.39-1.66-1.39-1.66-1.39-3.66-0.99-0.33-1.98-0.66-3-1v-2c-1.98-0.99-1.98-0.99-4-2v-2c-0.99-0.33-1.98-0.66-3-1v-2c-0.557-0.233-1.11-0.465-1.69-0.705-2.91-1.63-4.93-3.66-7.3-6.01-0.935-0.932-1.87-1.86-2.83-2.82-0.721-0.728-0.721-0.728-1.46-1.47-1.48-1.49-2.97-2.97-4.46-4.44-0.929-0.932-1.86-1.86-2.82-2.82-0.854-0.857-1.71-1.71-2.59-2.6-1.86-2.12-1.86-2.12-1.86-4.12-0.564-0.238-1.13-0.476-1.71-0.722-2.8-1.56-4.71-3.45-6.97-5.73-0.921-0.921-1.84-1.84-2.79-2.79-0.996-1.01-1.99-2.01-2.99-3.02-1.03-1.03-2.05-2.06-3.08-3.09-2.69-2.7-5.38-5.41-8.07-8.12-2.74-2.77-5.5-5.52-8.25-8.28-5.39-5.41-10.8-10.8-16.2-16.3 1.58-3.85 4.17-6.46 7.07-9.35 0.522-0.527 1.04-1.05 1.58-1.6 1.75-1.76 3.5-3.52 5.26-5.28 1.26-1.26 2.51-2.53 3.76-3.79 3.41-3.43 6.82-6.85 10.2-10.3 2.13-2.14 4.26-4.27 6.4-6.41 7.43-7.45 14.9-14.9 22.3-22.3 6.94-6.95 13.9-13.9 20.8-20.9 5.94-5.98 11.9-11.9 17.8-17.9 3.56-3.56 7.12-7.13 10.7-10.7 3.33-3.36 6.68-6.71 10-10 1.23-1.23 2.46-2.46 3.68-3.7 1.66-1.68 3.34-3.35 5.03-5.02 0.728-0.747 0.728-0.747 1.47-1.51 3.34-3.26 3.34-3.26 5.8-3z" fill="#000002"/>
</svg>
